# File created by Blade
# Date/Time:  Tue Sep 23 19:06:47 2014
# Frame Rate: 120.000 fps
#------------------------------------------------------
:FULLY-SPECIFIED
:DEGREES
627
root 3.031560 34.503716 -5.905840 52.148455 -7.596652 -45.139228
Spine -46.044536 30.218028 9.796338
Head -3.371794 -6.803302 8.663975
LeftShoulder -19.179838 19.279405 36.837962
LeftArm 38.616474 -75.422938 8.464527
LeftForeArm 99.601355 -0.000000 7.646819
LeftHand -16.128905 -0.000000 62.822039
LeftHandThumb1 -26.253704 0.000000 33.147579
RightShoulder -9.591546 -7.989355 -19.692747
RightArm 115.773841 40.646539 151.547205
RightForeArm 51.981441 -0.000000 62.338212
RightHand -0.432984 -0.000000 25.063657
RightHandThumb1 -24.326973 -0.000000 -32.862282
LeftUpLeg -43.712249 32.380475 28.765396
LeftLeg 20.626270 -0.000000 -0.000000
LeftFoot -12.702110 25.959093 4.133106
LeftToeBase 3.714307 -0.000000 -0.000000
RightUpLeg -182.221778 -36.875049 55.739204
RightLeg -6.248154 -0.000000 0.000000
RightFoot 29.587520 -22.861206 17.954848
RightToeBase 33.808854 -0.000000 -0.000000
628
root 3.032361 34.505583 -5.872845 51.839064 -7.139345 -45.219400
Spine -45.676095 29.964651 10.522159
Head -3.512286 -6.682922 8.534832
LeftShoulder -19.106425 19.418542 36.867719
LeftArm 40.603571 -76.153277 6.105181
LeftForeArm 99.777661 -0.000000 8.164682
LeftHand -16.180484 -0.000000 62.754103
LeftHandThumb1 -26.253704 0.000000 33.147579
RightShoulder -9.501525 -7.601099 -19.874165
RightArm 115.753250 40.751104 151.498419
RightForeArm 51.769119 -0.000000 62.493514
RightHand -0.437250 -0.000000 24.929896
RightHandThumb1 -24.326973 -0.000000 -32.862282
LeftUpLeg -43.376754 31.367411 29.840484
LeftLeg 20.911469 -0.000000 -0.000000
LeftFoot -12.397561 26.178134 4.146256
LeftToeBase 2.420008 -0.000000 -0.000000
RightUpLeg -182.336514 -37.029580 56.290195
RightLeg -6.429509 -0.000000 0.000000
RightFoot 29.500671 -22.969603 17.662374
RightToeBase 33.835321 -0.000000 -0.000000
629
root 3.032094 34.508658 -5.836375 51.519571 -6.826259 -45.251112
Spine -45.362374 29.758566 10.992579
Head -3.634225 -6.615367 8.598561
LeftShoulder -19.086005 19.432386 36.960299
LeftArm 42.792786 -76.587049 3.780003
LeftForeArm 99.655449 0.000000 8.462415
LeftHand -15.982596 0.000000 62.697542
LeftHandThumb1 -26.253704 0.000000 33.147579
RightShoulder -9.484526 -7.511976 -19.945856
RightArm 115.873951 40.678369 151.591966
RightForeArm 51.752693 -0.000000 62.506438
RightHand -0.375187 -0.000000 24.959010
RightHandThumb1 -24.326973 -0.000000 -32.862282
LeftUpLeg -42.883598 30.267423 30.867623
LeftLeg 21.102962 -0.000000 -0.000000
LeftFoot -12.200976 26.836764 3.762924
LeftToeBase 2.179940 -0.000000 -0.000000
RightUpLeg -182.419759 -37.274681 56.658524
RightLeg -6.492701 -0.000000 0.000000
RightFoot 29.457597 -23.146333 17.418260
RightToeBase 33.961478 -0.000000 -0.000000
630
root 3.023968 34.511856 -5.788680 51.078754 -6.646936 -45.236553
Spine -44.973710 29.561663 11.292756
Head -3.736502 -6.551693 8.835177
LeftShoulder -19.035443 20.124916 36.732217
LeftArm 42.841723 -77.510545 3.923724
LeftForeArm 99.654391 -0.000000 8.481848
LeftHand -16.090515 0.000000 62.746760
LeftHandThumb1 -26.253704 0.000000 33.147579
RightShoulder -9.548404 -7.700540 -19.917693
RightArm 116.008345 40.462197 151.715191
RightForeArm 51.741038 -0.000000 62.469653
RightHand -0.305705 -0.000000 24.863389
RightHandThumb1 -24.326973 -0.000000 -32.862282
LeftUpLeg -42.332306 29.471937 31.534372
LeftLeg 21.205325 -0.000000 -0.000000
LeftFoot -11.882945 27.223765 3.853024
LeftToeBase 1.542045 -0.000000 -0.000000
RightUpLeg -182.416738 -37.718749 56.804722
RightLeg -6.436855 -0.000000 0.000000
RightFoot 29.673831 -23.162975 17.111732
RightToeBase 33.596043 -0.000000 -0.000000
631
root 3.010795 34.516720 -5.739647 50.763998 -6.627850 -45.214995
Spine -44.770902 29.458034 11.322812
Head -3.760533 -6.510227 9.190661
LeftShoulder -18.981835 20.411244 36.749266
LeftArm 43.127179 -77.881103 3.848429
LeftForeArm 99.402142 -0.000000 8.521181
LeftHand -15.822404 0.000000 62.706481
LeftHandThumb1 -26.253704 0.000000 33.147579
RightShoulder -9.639489 -8.019580 -19.836370
RightArm 116.120011 40.219439 151.851801
RightForeArm 51.866863 -0.000000 62.349099
RightHand -0.251034 -0.000000 24.843175
RightHandThumb1 -24.326973 -0.000000 -32.862282
LeftUpLeg -41.880386 29.058619 31.838441
LeftLeg 21.188702 -0.000000 -0.000000
LeftFoot -11.580970 27.435348 4.056368
LeftToeBase 1.185485 -0.000000 -0.000000
RightUpLeg -182.396075 -38.006492 56.772806
RightLeg -6.308002 -0.000000 0.000000
RightFoot 29.617436 -23.332112 17.310405
RightToeBase 33.984962 -0.000000 -0.000000
632
root 2.992635 34.523378 -5.687979 50.619287 -6.776883 -45.209137
Spine -44.802960 29.454345 11.115299
Head -3.631787 -6.469093 9.623273
LeftShoulder -18.954003 20.012916 37.152835
LeftArm 44.707882 -77.379528 2.512141
LeftForeArm 99.652943 -0.000000 8.403848
LeftHand -16.166303 -0.000000 62.858323
LeftHandThumb1 -26.253704 0.000000 33.147579
RightShoulder -9.694864 -8.433389 -19.727902
RightArm 116.236441 39.909361 152.049326
RightForeArm 51.971579 -0.000000 62.179242
RightHand -0.205028 -0.000000 24.853589
RightHandThumb1 -24.326973 -0.000000 -32.862282
LeftUpLeg -41.503536 28.999300 31.838904
LeftLeg 21.045913 -0.000000 -0.000000
LeftFoot -11.241223 27.634275 4.453760
LeftToeBase 0.738519 -0.000000 -0.000000
RightUpLeg -182.348042 -38.088174 56.575932
RightLeg -6.138898 -0.000000 0.000000
RightFoot 29.663228 -23.365641 17.463786
RightToeBase 33.940303 -0.000000 -0.000000
633
root 2.980182 34.534209 -5.637706 50.536124 -7.011405 -45.217168
Spine -44.922524 29.519650 10.812311
Head -3.377209 -6.437893 10.103776
LeftShoulder -18.869733 20.428514 37.109836
LeftArm 43.479231 -77.537428 4.257914
LeftForeArm 99.337828 -0.000000 8.177406
LeftHand -16.057583 -0.000000 62.921184
LeftHandThumb1 -26.253704 0.000000 33.147579
RightShoulder -9.689643 -8.697588 -19.569642
RightArm 116.359774 39.732741 152.181686
RightForeArm 52.156271 -0.000000 61.967393
RightHand -0.253469 0.000000 24.888522
RightHandThumb1 -24.326973 -0.000000 -32.862282
LeftUpLeg -41.133328 29.042967 31.724462
LeftLeg 20.812575 -0.000000 -0.000000
LeftFoot -10.768764 27.900263 5.035761
LeftToeBase 0.408696 -0.000000 -0.000000
RightUpLeg -182.229176 -38.089620 56.280870
RightLeg -5.965877 -0.000000 0.000000
RightFoot 29.895724 -23.299323 17.328186
RightToeBase 33.623220 -0.000000 -0.000000
634
root 2.970354 34.548984 -5.587679 50.587089 -7.295593 -45.249564
Spine -45.220113 29.667790 10.408173
Head -3.030888 -6.431322 10.526981
LeftShoulder -18.753197 20.673464 37.148411
LeftArm 42.476327 -77.490804 5.743358
LeftForeArm 99.597813 -0.000000 7.980316
LeftHand -16.695931 -0.000000 63.198216
LeftHandThumb1 -26.253704 0.000000 33.147579
RightShoulder -9.678652 -8.832625 -19.404457
RightArm 116.384820 39.652849 152.209690
RightForeArm 52.223324 -0.000000 61.765923
RightHand -0.188286 -0.000000 24.942175
RightHandThumb1 -24.326973 -0.000000 -32.862282
LeftUpLeg -40.868287 29.242145 31.493255
LeftLeg 20.545955 -0.000000 -0.000000
LeftFoot -10.356977 28.125952 5.522882
LeftToeBase 0.251821 -0.000000 -0.000000
RightUpLeg -182.118014 -37.864231 55.981682
RightLeg -5.863724 -0.000000 0.000000
RightFoot 29.663025 -23.632336 17.915748
RightToeBase 34.014344 -0.000000 -0.000000
